<svg width="32" height="32" viewBox="0 0 40 40" fill="none" xmlns="http://www.w3.org/2000/svg">
  <defs>
    <linearGradient id="g" x1="4" y1="4" x2="36" y2="36" gradientUnits="userSpaceOnUse">
      <stop stop-color="#FF6B00"/>
      <stop offset="1" stop-color="#FFAA00"/>
    </linearGradient>
  </defs>
  <rect width="40" height="40" rx="10" fill="url(#g)"/>
  <path d="M20 9.5c-3.6 0-6.5 2.9-6.5 6.5v4.2c0 .8-.3 1.6-.9 2.2l-1.4 1.4c-.4.4-.1 1.2.4 1.2h17.8c.5 0 .8-.8.4-1.2l-1.4-1.4c-.6-.6-.9-1.4-.9-2.2v-4.2c0-3.6-2.9-6.5-6.5-6.5Z" fill="#0C1220"/>
  <path d="M16.2 28.8c.9 1.5 2.5 2.5 4.3 2.5s3.4-1 4.3-2.5" stroke="#0C1220" stroke-width="1.8" stroke-linecap="round"/>
  <circle cx="20" cy="9" r="1.6" fill="#0C1220"/>
  <circle cx="28.5" cy="11.5" r="4.2" fill="#22C55E" stroke="#0C1220" stroke-width="1.5"/>
</svg>
